<?xml version="1.0" standalone="no"?>
<!DOCTYPE svg PUBLIC "-//W3C//DTD SVG 20010904//EN"
 "http://www.w3.org/TR/2001/REC-SVG-20010904/DTD/svg10.dtd">
<svg version="1.0" xmlns="http://www.w3.org/2000/svg"
 width="1200.000000pt" height="1200.000000pt" viewBox="0 0 1200.000000 1200.000000"
 preserveAspectRatio="xMidYMid meet">
<metadata>
Created by potrace 1.16, written by Peter Selinger 2001-2019
</metadata>
<g transform="translate(0.000000,1200.000000) scale(0.100000,-0.100000)"
fill="#000000" stroke="none">
<path d="M5881 7949 c-66 -11 -153 -46 -227 -90 -65 -40 -175 -152 -204 -209
-20 -40 -21 -40 -78 -40 -222 0 -353 -268 -217 -446 21 -27 99 -87 126 -96 5
-2 -3 -36 -17 -76 -93 -268 63 -559 373 -695 115 -51 205 -68 358 -69 112 0
157 4 225 22 266 68 464 239 525 454 23 79 17 218 -13 301 -12 32 -22 61 -22
62 0 2 16 9 35 17 52 22 119 95 138 151 63 184 -67 375 -254 375 l-56 0 -36
59 c-129 207 -398 323 -656 280z m5 -240 c47 -22 104 -97 104 -136 0 -13 5
-23 10 -23 6 0 10 10 10 23 0 13 13 44 29 69 52 82 158 111 248 67 47 -23 115
-93 144 -151 43 -84 61 -247 39 -343 -8 -37 -7 -41 29 -80 236 -256 107 -612
-264 -731 -109 -35 -276 -44 -396 -20 -117 24 -233 82 -314 157 -186 174 -192
416 -14 604 26 28 27 33 18 75 -16 65 -5 214 20 284 45 126 155 226 250 226
25 0 64 -9 87 -21z m-509 -311 c-1 -40 2 -101 6 -135 l8 -63 -28 0 c-72 0
-130 76 -119 154 8 48 30 79 71 100 58 30 65 24 62 -56z m1300 62 c6 0 25 -14
42 -30 79 -80 26 -230 -82 -230 l-28 0 8 58 c4 31 7 92 5 136 -2 77 -2 78 21
72 12 -3 27 -6 34 -6z"/>
<path d="M5735 7332 c-47 -16 -85 -60 -85 -100 0 -64 69 -120 131 -107 65 15
101 108 63 164 -13 19 -74 54 -86 50 -2 -1 -12 -4 -23 -7z"/>
<path d="M6204 7326 c-84 -37 -87 -153 -6 -192 48 -23 105 -6 132 39 24 39 25
59 5 102 -24 50 -81 72 -131 51z"/>
<path d="M5882 7048 c-30 -15 -24 -39 13 -57 25 -12 35 -12 70 0 33 12 44 12
65 2 27 -14 74 -10 97 8 39 33 -24 69 -90 52 -26 -7 -49 -8 -64 -2 -31 12 -62
10 -91 -3z"/>
<path d="M6472 6853 c-7 -3 -36 -20 -63 -39 -67 -44 -188 -82 -310 -95 -181
-20 -389 19 -509 95 -67 43 -101 46 -129 10 -36 -46 -21 -85 52 -131 170 -108
463 -152 692 -104 187 39 347 123 353 187 5 47 -46 93 -86 77z"/>
<path d="M6311 4777 c-68 -160 -166 -390 -217 -509 l-92 -218 78 0 77 0 48
115 48 115 180 -2 180 -3 42 -110 43 -110 92 -3 c72 -2 91 0 87 10 -3 7 -98
231 -212 498 -114 267 -209 491 -212 498 -3 6 -8 12 -12 12 -3 0 -62 -132
-130 -293z m184 -206 c31 -78 55 -145 52 -147 -2 -3 -56 -3 -120 -2 l-116 3
61 148 c33 81 62 146 64 145 1 -2 28 -68 59 -147z"/>
<path d="M3396 4963 c1 -38 2 -71 3 -75 0 -5 55 -8 121 -8 l120 0 0 -415 0
-415 80 0 80 0 0 415 0 415 125 0 125 0 0 75 0 75 -328 0 -328 0 2 -67z"/>
<path d="M5080 4745 l0 -125 -50 0 -50 0 0 -60 0 -60 50 0 50 0 0 -225 0 -225
75 0 75 0 0 225 0 225 75 0 75 0 0 60 0 60 -75 0 -75 0 0 125 0 125 -75 0 -75
0 0 -125z"/>
<path d="M7370 4637 c-49 -14 -110 -48 -130 -73 -17 -19 -30 -2 -30 39 0 27 0
27 -70 27 l-70 0 0 -425 c0 -333 3 -425 13 -426 73 -5 137 -3 138 6 0 5 1 81
1 168 1 145 6 175 24 146 3 -6 30 -22 58 -35 63 -29 168 -32 242 -7 70 24 147
103 168 173 32 109 13 232 -47 312 -63 82 -194 124 -297 95z m128 -150 c49
-32 76 -87 76 -152 0 -99 -64 -166 -165 -173 -71 -5 -109 8 -149 55 -28 32
-30 39 -30 118 0 76 2 86 27 116 61 71 164 87 241 36z"/>
<path d="M8250 4637 c-49 -14 -110 -48 -130 -73 -17 -19 -30 -2 -30 39 0 27 0
27 -70 27 l-70 0 0 -425 c0 -333 3 -425 13 -426 73 -5 137 -3 138 6 0 5 1 81
1 168 1 145 6 175 24 146 3 -6 30 -22 58 -35 63 -29 168 -32 242 -7 70 24 147
103 168 173 32 109 13 232 -47 312 -63 82 -194 124 -297 95z m128 -150 c49
-32 76 -87 76 -152 0 -99 -64 -166 -165 -173 -71 -5 -109 8 -149 55 -28 32
-30 39 -30 118 0 76 2 86 27 116 61 71 164 87 241 36z"/>
<path d="M4200 4408 c0 -228 6 -270 47 -318 38 -45 74 -60 145 -60 76 0 130
23 181 75 l37 38 0 -31 c0 -57 6 -62 76 -62 l64 0 0 285 0 285 -75 0 -75 0 0
-151 c0 -175 -9 -217 -61 -271 -32 -34 -41 -38 -87 -38 -43 0 -54 4 -71 26
-20 25 -21 39 -21 230 l0 204 -80 0 -80 0 0 -212z"/>
</g>
</svg>
