<?xml version="1.0" standalone="no"?>
<!DOCTYPE svg PUBLIC "-//W3C//DTD SVG 20010904//EN"
 "http://www.w3.org/TR/2001/REC-SVG-20010904/DTD/svg10.dtd">
<svg version="1.0" xmlns="http://www.w3.org/2000/svg"
 width="1200.000000pt" height="1200.000000pt" viewBox="0 0 1200.000000 1200.000000"
 preserveAspectRatio="xMidYMid meet">
<metadata>
Created by potrace 1.16, written by Peter Selinger 2001-2019
</metadata>
<g transform="translate(0.000000,1200.000000) scale(0.100000,-0.100000)"
fill="#000000" stroke="none">
<path d="M4484 9664 c-34 -7 -79 -21 -101 -32 -43 -22 -102 -83 -104 -107 -1
-8 -2 -21 -2 -27 -10 -138 225 -239 419 -180 142 43 205 128 164 221 -46 101
-216 158 -376 125z"/>
<path d="M7334 9664 c-34 -7 -79 -21 -101 -32 -43 -22 -102 -83 -104 -107 -1
-8 -2 -21 -2 -27 -5 -66 53 -135 142 -170 73 -28 232 -31 301 -4 62 23 119 64
136 99 78 150 -137 290 -372 241z"/>
<path d="M5958 9525 c-2 -1 -52 -5 -113 -8 -119 -7 -258 -33 -345 -66 -240
-90 -227 -231 29 -311 l54 -17 -124 -107 c-139 -121 -159 -145 -159 -197 0
-75 81 -126 150 -96 19 9 122 92 229 186 l195 170 136 -1 137 0 194 -170 c107
-93 207 -176 223 -184 65 -35 156 19 156 93 0 54 -19 77 -158 198 -68 59 -122
109 -120 110 2 2 32 15 68 29 158 64 203 141 128 217 -70 70 -259 131 -448
145 -96 7 -229 12 -232 9z"/>
</g>
</svg>
