<?xml version="1.0" standalone="no"?>
<!DOCTYPE svg PUBLIC "-//W3C//DTD SVG 20010904//EN"
 "http://www.w3.org/TR/2001/REC-SVG-20010904/DTD/svg10.dtd">
<svg version="1.0" xmlns="http://www.w3.org/2000/svg"
 width="1200.000000pt" height="1200.000000pt" viewBox="0 0 1200.000000 1200.000000"
 preserveAspectRatio="xMidYMid meet">
<metadata>
Created by potrace 1.16, written by Peter Selinger 2001-2019
</metadata>
<g transform="translate(0.000000,1200.000000) scale(0.100000,-0.100000)"
fill="#000000" stroke="none">
<path d="M1950 8700 l0 -2700 1350 0 1350 0 0 -1350 0 -1350 1350 0 1350 0 0
-1350 0 -1350 1350 0 1350 0 0 1350 0 1350 -1350 0 -1350 0 0 1350 0 1350
-1350 0 -1350 0 0 400 0 400 118 1 c64 0 124 2 132 3 8 2 81 6 162 10 81 4
157 9 170 11 13 2 59 6 103 10 250 20 612 88 853 161 576 174 902 455 879 759
-12 163 -133 358 -272 440 -153 89 -327 67 -770 -98 -430 -161 -776 -252
-1070 -282 -38 -4 -78 -9 -87 -11 -10 -1 -54 -4 -100 -5 -128 -3 -121 4 -114
-108 2 -53 5 -102 5 -109 1 -11 21 -12 94 -7 460 31 762 101 1332 307 278 101
353 124 437 138 110 17 166 -3 231 -82 119 -145 121 -278 5 -397 -160 -165
-466 -303 -876 -396 -297 -67 -629 -105 -1064 -121 l-168 -6 0 275 c0 253 -1
275 -17 279 -19 5 -122 11 -207 12 l-49 1 -86 -152 c-47 -84 -88 -153 -91
-153 -3 0 -53 84 -111 187 l-106 188 -78 18 c-43 9 -81 16 -84 15 -4 -2 -92
-92 -196 -202 l-190 -199 -46 277 c-25 152 -48 278 -50 280 -3 3 -149 56 -154
56 -1 0 -96 -99 -210 -221 -140 -148 -211 -216 -215 -207 -4 7 -18 133 -31
281 -21 244 -25 267 -42 267 -93 0 -225 -201 -209 -320 36 -269 621 -535 1382
-629 221 -27 259 -30 424 -37 77 -3 150 -8 161 -9 11 -2 62 -4 113 -4 l92 -1
0 -111 0 -110 -177 5 c-558 19 -1008 84 -1373 200 -665 212 -964 552 -804 913
73 167 206 291 345 322 64 15 182 7 284 -19 50 -12 205 -64 345 -115 562 -204
828 -271 1195 -300 44 -4 104 -8 133 -11 l52 -5 0 1806 0 1805 -1350 0 -1350
0 0 -2700z m1479 2389 c242 -39 469 -221 563 -452 61 -149 73 -331 33 -482
-66 -248 -271 -453 -530 -531 -85 -26 -305 -26 -390 0 -261 79 -455 271 -527
521 -33 116 -33 308 0 415 30 97 80 188 149 273 60 73 96 105 50 44 -73 -97
-94 -218 -58 -333 51 -165 185 -264 356 -264 148 0 261 70 330 204 37 72 40
84 40 159 0 102 -23 168 -85 245 -67 83 -154 126 -266 131 -58 2 -98 -2 -131
-13 -77 -25 -25 8 69 44 124 48 261 62 397 39z"/>
<path d="M5025 10173 c-66 -17 -89 -107 -40 -153 21 -19 39 -24 105 -28 l80
-5 0 -281 c1 -308 5 -380 26 -413 29 -45 137 -40 161 7 9 19 13 112 13 358 l0
332 65 0 c74 0 128 18 144 48 20 37 13 86 -15 113 -26 24 -26 24 -272 26 -136
1 -256 -1 -267 -4z"/>
<path d="M6527 10169 c-32 -18 -47 -73 -47 -164 l0 -85 -45 0 c-56 0 -85 -27
-85 -81 0 -48 36 -79 91 -79 l39 0 0 -155 c0 -183 11 -244 52 -291 47 -54 147
-70 228 -38 99 40 86 174 -16 174 -57 0 -64 20 -64 173 l0 137 50 0 c62 0 100
31 100 80 0 49 -38 80 -100 80 l-50 0 -1 83 c0 98 -15 147 -49 164 -30 15 -78
16 -103 2z"/>
<path d="M7674 10164 c-16 -8 -37 -27 -46 -42 -8 -15 -50 -143 -92 -285 l-77
-259 3 -140 c3 -133 4 -141 27 -159 30 -25 92 -25 122 0 22 17 24 29 27 115
l4 96 134 0 134 0 0 -90 c0 -83 2 -93 25 -115 26 -27 68 -32 109 -14 40 18 49
65 43 208 -5 120 -9 137 -80 375 -75 249 -93 290 -138 313 -34 18 -157 16
-195 -3z m158 -330 c26 -93 48 -170 48 -171 0 -2 -48 -3 -106 -3 -81 0 -105 3
-102 13 3 6 25 85 49 174 24 90 48 161 54 160 5 -2 31 -80 57 -173z"/>
<path d="M5732 9910 c-44 -18 -52 -63 -52 -276 0 -223 7 -260 60 -315 77 -81
206 -77 264 7 26 38 26 38 26 11 0 -52 57 -85 125 -73 65 13 70 31 73 285 4
268 0 304 -38 343 -45 45 -120 34 -150 -23 -6 -11 -13 -97 -16 -192 -6 -194
-21 -251 -68 -263 -67 -16 -76 13 -76 237 0 191 -9 237 -48 258 -25 13 -68 13
-100 1z"/>
<path d="M8259 9890 l-30 -29 3 -406 3 -407 28 -24 c46 -40 122 -27 148 25 8
16 14 78 17 165 4 137 4 138 22 109 10 -16 33 -37 53 -46 98 -47 218 10 256
122 15 46 15 332 -1 384 -41 138 -241 185 -308 74 l-19 -30 -15 37 c-26 63
-107 76 -157 26z m295 -142 c13 -18 16 -52 16 -158 0 -145 -10 -180 -51 -180
-60 0 -89 61 -89 185 0 86 10 127 37 157 23 25 68 23 87 -4z"/>
<path d="M8959 9890 l-30 -29 3 -406 3 -407 28 -24 c46 -40 122 -27 148 25 8
16 14 78 17 165 4 137 4 138 22 109 10 -16 33 -37 53 -46 98 -47 218 10 256
122 15 46 15 332 -1 384 -41 138 -241 185 -308 74 l-19 -30 -15 37 c-26 63
-107 76 -157 26z m295 -142 c13 -18 16 -52 16 -158 0 -145 -10 -180 -51 -180
-60 0 -89 61 -89 185 0 86 10 127 37 157 23 25 68 23 87 -4z"/>
<path d="M8660 5475 l0 -265 75 0 75 0 0 265 0 265 -75 0 -75 0 0 -265z"/>
<path d="M7948 5654 c-32 -19 -58 -39 -58 -43 0 -9 337 -597 360 -628 15 -20
16 -20 77 16 l63 37 -185 324 c-101 179 -188 326 -192 327 -4 1 -34 -14 -65
-33z"/>
<path d="M9325 5403 c-164 -387 -159 -373 -149 -382 13 -11 124 -54 128 -50 2
2 66 151 143 331 l140 326 -61 26 c-33 14 -66 26 -72 26 -6 0 -64 -125 -129
-277z"/>
<path d="M8639 4847 c-101 -42 -168 -107 -209 -201 -66 -148 -11 -350 121
-446 72 -52 143 -72 239 -68 105 4 178 35 248 105 146 147 147 374 1 524 -71
73 -142 103 -254 107 -76 2 -99 -1 -146 -21z"/>
</g>
</svg>
