<?xml version="1.0" standalone="no"?>
<!DOCTYPE svg PUBLIC "-//W3C//DTD SVG 20010904//EN"
 "http://www.w3.org/TR/2001/REC-SVG-20010904/DTD/svg10.dtd">
<svg version="1.0" xmlns="http://www.w3.org/2000/svg"
 width="1200.000000pt" height="1200.000000pt" viewBox="0 0 1200.000000 1200.000000"
 preserveAspectRatio="xMidYMid meet">
<metadata>
Created by potrace 1.16, written by Peter Selinger 2001-2019
</metadata>
<g transform="translate(0.000000,1200.000000) scale(0.100000,-0.100000)"
fill="#000000" stroke="none">
<path d="M5066 9583 c-7 -7 16 -135 35 -198 101 -337 402 -592 746 -633 287
-34 572 69 765 277 136 147 226 341 240 516 l3 40 -893 0 c-492 0 -895 -1
-896 -2z"/>
<path d="M7043 8623 l-1073 -597 0 -1194 c0 -1070 2 -1194 15 -1188 25 9 2115
1173 2125 1182 4 4 9 2396 6 2394 -1 0 -484 -269 -1073 -597z m172 -668 c196
-41 359 -197 410 -390 32 -125 12 -289 -50 -402 -105 -195 -336 -309 -552
-275 -267 43 -463 270 -463 537 0 348 313 602 655 530z"/>
<path d="M6920 7293 c1 -28 35 -96 61 -120 50 -46 137 -57 198 -25 45 23 88
78 96 125 l7 37 -181 0 c-166 0 -181 -1 -181 -17z"/>
<path d="M4883 7959 c-98 -12 -167 -59 -209 -145 -24 -49 -26 -63 -22 -133 4
-67 9 -86 37 -129 52 -82 124 -122 218 -122 78 0 127 17 180 64 124 109 124
293 1 402 -60 52 -124 72 -205 63z"/>
<path d="M3295 6538 c-275 -154 -644 -360 -820 -457 -674 -373 -816 -454 -808
-461 4 -4 488 -273 1074 -599 l1066 -592 694 387 c382 212 864 481 1072 596
208 116 375 214 370 218 -4 4 -195 111 -423 237 -228 127 -707 393 -1063 592
-357 198 -652 361 -655 360 -4 -1 -232 -127 -507 -281z m687 -401 c183 -66
314 -217 354 -407 81 -381 -278 -727 -656 -631 -163 41 -288 144 -362 296
-101 210 -60 442 106 610 149 151 365 202 558 132z"/>
<path d="M3672 5889 c-67 -33 -110 -80 -143 -155 -18 -39 -21 -61 -17 -123 5
-88 29 -142 86 -199 54 -54 105 -76 189 -80 132 -7 225 45 282 160 26 51 31
73 31 133 0 60 -5 82 -31 133 -54 110 -141 162 -269 162 -54 0 -78 -6 -128
-31z"/>
<path d="M7810 6151 c-128 -26 -277 -143 -344 -270 -85 -162 -87 -327 -6 -497
75 -157 242 -277 403 -291 l77 -6 0 537 0 536 -47 -1 c-27 -1 -64 -4 -83 -8z"/>
<path d="M3648 2889 c-22 -12 -41 -82 -33 -119 4 -16 15 -41 26 -55 20 -24 24
-25 135 -25 l114 0 0 -419 c0 -464 -4 -438 66 -461 43 -15 105 -8 139 14 l25
16 0 425 0 425 109 0 c60 0 117 3 126 6 23 9 45 57 45 99 0 42 -22 90 -45 99
-28 10 -688 6 -707 -5z"/>
<path d="M6276 2885 c-22 -7 -47 -22 -57 -32 -18 -19 -299 -923 -299 -962 0
-29 40 -65 88 -79 99 -30 121 -13 157 118 l28 100 160 -2 160 -3 27 -98 c15
-54 32 -103 38 -109 36 -36 163 -7 197 45 16 24 11 41 -130 498 -93 302 -153
481 -166 495 -39 42 -131 55 -203 29z m178 -651 l6 -24 -110 0 c-102 0 -111 2
-106 18 3 9 26 91 51 182 25 91 48 172 51 180 5 12 70 -204 108 -356z"/>
<path d="M5180 2814 c-19 -8 -38 -20 -42 -27 -4 -7 -8 -192 -8 -412 0 -368 2
-403 19 -440 41 -90 112 -125 268 -132 l102 -6 30 31 c40 39 43 97 7 139 -21
24 -32 28 -97 31 -41 2 -80 9 -86 14 -10 8 -13 54 -13 169 l0 159 94 0 c87 0
96 2 110 22 9 12 16 41 16 63 0 22 -7 51 -16 63 -14 20 -23 22 -110 22 l-94 0
0 126 c0 71 -5 134 -11 146 -13 23 -67 48 -106 48 -15 -1 -44 -8 -63 -16z"/>
<path d="M7208 2508 c-21 -5 -58 -28 -83 -50 -28 -24 -45 -34 -45 -25 0 27
-40 66 -75 73 -47 9 -102 -3 -126 -27 -18 -18 -19 -37 -19 -503 l0 -485 26
-20 c35 -27 88 -36 135 -22 66 20 69 30 69 256 l1 200 20 -28 c30 -39 99 -77
156 -84 91 -10 190 53 242 154 46 90 53 278 15 388 -25 71 -113 157 -176 173
-54 14 -88 14 -140 0z m57 -210 c37 -29 55 -76 55 -143 0 -99 -47 -165 -118
-165 -27 0 -43 9 -73 39 -39 39 -39 39 -39 120 0 54 5 92 15 111 30 58 110 77
160 38z"/>
<path d="M8008 2508 c-21 -5 -58 -28 -83 -50 -28 -24 -45 -34 -45 -25 0 27
-40 66 -75 73 -47 9 -102 -3 -126 -27 -18 -18 -19 -37 -19 -503 l0 -485 26
-20 c35 -27 88 -36 135 -22 66 20 69 30 69 256 l1 200 20 -28 c30 -39 99 -77
156 -84 91 -10 190 53 242 154 46 90 53 278 15 388 -25 71 -113 157 -176 173
-54 14 -88 14 -140 0z m57 -210 c37 -29 55 -76 55 -143 0 -99 -47 -165 -118
-165 -27 0 -43 9 -73 39 -39 39 -39 39 -39 120 0 54 5 92 15 111 30 58 110 77
160 38z"/>
<path d="M4372 2494 c-18 -9 -37 -26 -43 -36 -7 -12 -9 -97 -7 -226 l3 -207
29 -53 c37 -66 92 -117 165 -150 46 -22 71 -26 141 -27 111 0 188 33 259 111
74 81 81 111 81 350 0 196 -1 204 -22 223 -41 39 -133 39 -180 2 -22 -19 -23
-25 -28 -226 l-5 -207 -33 -29 c-37 -33 -79 -38 -121 -13 -52 31 -56 44 -61
258 l-5 199 -26 20 c-37 27 -106 32 -147 11z"/>
</g>
</svg>
